<?xml version="1.0" encoding="UTF-8" standalone="no"?>
<svg width="1920" height="1080" xmlns="http://www.w3.org/2000/svg">
  <defs>
    <radialGradient id="bg-gradient" cx="50%" cy="50%" r="70%" fx="50%" fy="50%">
      <stop offset="0%" stop-color="#171717" />
      <stop offset="30%" stop-color="#1a1a1a" />
      <stop offset="60%" stop-color="#252525" />
      <stop offset="90%" stop-color="#0e0e0e" />
    </radialGradient>
  </defs>
  
  <!-- Background rectangle -->
  <rect x="0" y="0" width="1920" height="1080" fill="url(#bg-gradient)" />
  <path d="M266.485344085188,1049.2396109693116 C318.3859239891343,1097.8598473434167 463.7692084964187,1092.9382965031086 57.05634484768785,1207.2913028880348 C19.509150993520514,1140.7653598477668 -70.25501381341411,1261.6889169183778 -188.71818910447456,1118.488127620029 C-244.22960631396717,1040.5437407071292 -262.5528250796641,1298.4565204077976 -224.92277702896922,1278.2206071208655 C-297.0482447731181,1279.1178584945042 -272.2775818968593,1279.3943597307493 -321.3935688952769,1084.9160580007192 " stroke="#781e1e" stroke-width="0.926807040056213" fill="none" opacity="0.47663930106278496" />
  <path d="M1456.0306769085716,531.6413688026764 C1366.614571018884,583.8485691582881 1456.9401155985875,341.2218029919294 1470.6486568506498,627.7243654780414 C1480.7598154468103,653.1888672079339 1374.5318961203773,721.116563476164 1410.689817283724,732.0935550464221 C1435.8701917514377,792.4543167869979 1325.5170277437837,620.4452213607675 1180.252448185964,604.7119947195292 C1105.9488945745416,698.409564406591 1254.4215818807215,686.9258696293113 1338.1171257252986,418.5836924729594 " stroke="#781e1e" stroke-width="2.105351981007563" fill="none" opacity="0.46205316033945976" />
  <path d="M1019.8447646353992,559.4077759427727 C1073.2701190533255,603.2988475487357 1208.6821268264011,474.61606968389395 802.6104291797666,553.8438100274285 C805.0610742267947,622.0573416294478 653.3840237181341,608.3763062456011 691.6557733002516,386.43056405248785 C777.7793473847926,469.69484778373663 582.2262345612504,502.8766824628612 706.0360765528992,275.9715368623492 C762.1135337643133,301.03283731849103 608.3851265842002,244.78450574615317 842.7287738425612,30.3290936290814 " stroke="#781e1e" stroke-width="1.8259382555059729" fill="none" opacity="0.1081411247971314" />
  <path d="M764.5241324125445,504.4486608131582 C736.8631023152631,592.3338703079321 715.3900114007549,355.2584108606618 990.6404143000921,290.4366790029279 C1042.2785678389844,249.46517596717467 956.5717768924676,465.0279248786558 1082.7530846380355,243.73925067210456 C1140.9756181880746,297.2749600246408 985.6211319634723,278.8390467192045 869.3007317478302,262.38567281711477 C891.797027462897,353.6746895721724 843.1820254606744,256.06666859398166 641.5854257246295,287.4533589874896 " stroke="#781e1e" stroke-width="1.7286017747464566" fill="none" opacity="0.31472993172961916" />
  <path d="M1508.7394501561473,844.5984991381395 C1434.4995794249487,752.7628545506361 1461.5784095812876,1042.258591614277 1315.8590288458947,1088.1327137132025 C1301.8889770994838,1013.1456764816982 1126.7647373819066,1267.630948871378 1442.1050762204857,983.6933640476414 C1390.4564288613228,913.0284652676924 1336.581650741563,818.2214980016826 1567.0869316298247,1151.4915544375506 C1479.1259110752035,1123.3688319409212 1423.427314511515,1211.0924258979014 1367.7408427716373,1106.78281605937 " stroke="#781e1e" stroke-width="1.8348745143011094" fill="none" opacity="0.29536218903721445" />
  <path d="M577.6402408506418,150.56357984321852 C514.4694801264105,58.77760113973284 708.6383736832967,81.42011969561074 697.339435208849,160.05576345203508 C600.4841104763303,211.29387721589387 778.330343927342,-28.119082232637055 651.5505428485694,65.96018335930273 C648.8319835546432,-13.482194678256718 563.5661778841529,-77.52710436393807 467.0172602282402,-175.37890371869128 C487.4621957654011,-232.5068167465252 442.06570032682987,9.46457401277064 658.282986609277,-259.0859228187492 " stroke="#781e1e" stroke-width="0.571965695454318" fill="none" opacity="0.34973250238524656" />
  <path d="M1442.2989685247906,824.6534894246679 C1391.977299824674,865.8742326501206 1429.1071725901725,844.0443256234354 1619.1737331171494,944.8294423024631 C1715.8791605805816,872.7531073067993 1607.3143936640347,788.2625959512604 1705.2881284578486,1016.5020056063656 C1671.2283979837866,1059.998382578541 1581.060596404169,1045.669375633703 1692.6942545297995,1098.9044288845785 C1632.1563173624843,1143.1691060612052 1776.9959288681107,1183.298489582876 1784.8796364519562,1154.4498848365674 " stroke="#781e1e" stroke-width="1.9875310498560046" fill="none" opacity="0.4844489465108269" />
  <path d="M360.70732916254894,180.45462498111016 C299.31483521654485,213.32302684993218 237.66740000839712,57.81128140151546 608.2073907979753,249.04427790235655 C623.941629117247,185.95648297356126 599.1014583072679,258.3074508335711 366.9362516116373,291.65230531182345 C275.54494101964997,194.37470254017893 513.3211505276815,352.0285427317888 165.89207260290527,97.13115471944639 C192.42356966704432,30.338680691278327 103.06652930793214,212.28888801289372 14.895487409168993,12.234631108434854 " stroke="#781e1e" stroke-width="1.5866245684031406" fill="none" opacity="0.1985364603176314" />
  <path d="M1778.4319471948756,43.84337124637477 C1738.0864850744063,109.5568381493498 1822.7620680441694,-34.294454603469816 1702.7777108000353,-123.31325083999496 C1619.6790703717033,-38.44639746388654 1860.2174727359454,-273.5953909728859 1537.8724496707018,-292.65844413900504 C1491.126536096114,-273.6927001769092 1439.4797540017967,-389.66387834874115 1309.887725955991,-81.46371131717717 C1251.76878236524,-44.17179206282114 1207.1378843171917,15.453879088675023 1111.0118577497901,-63.27951571971698 " stroke="#781e1e" stroke-width="1.135153972302684" fill="none" opacity="0.44306365417743454" />
  <path d="M1910.7106914616154,264.5404608565323 C1856.80210445059,234.68805543413535 1981.7756235502386,247.4784865798839 1733.7219102773604,29.143082652787797 C1662.4214281459067,1.7111773041095688 1663.1047669459267,-169.80329526038986 1645.4578027310642,-68.71855761297081 C1691.7654771932357,-60.1891690541452 1665.2359942189296,-104.4183335411779 1634.9198577824984,-147.51725305532722 C1588.0636072832663,-196.67281442911136 1664.156107341617,-153.17231827806694 1390.1576710007596,-376.3035753260167 " stroke="#781e1e" stroke-width="1.4308749631804802" fill="none" opacity="0.20816976079408836" />
  <path d="M1056.1392033613358,180.2914347078756 C1043.7010214316433,218.46157964317266 1102.4812121835141,32.83498186627426 1054.050463568579,1.021732410787223 C1011.489363458567,-73.80662283223154 1054.3243546538552,-104.42610295392593 1109.9906222445486,198.00389378358076 C1205.6493658180002,285.03852323631304 1165.9070610315405,210.81778462360666 978.4576605941664,98.27280432774424 C964.4123295557147,40.115577090897375 1163.6842286157814,133.73496133032094 783.7166789041032,-86.78318644033166 " stroke="#781e1e" stroke-width="0.9004130188651023" fill="none" opacity="0.1694321664787964" />
  <path d="M1360.783238520112,763.1945289658779 C1281.6285112123762,794.2615435959251 1217.7207231687646,937.7347826946998 1460.3341099862432,580.3527211713618 C1393.6294487750718,659.2527942679785 1485.6720620509466,454.59313658157953 1646.7161164308882,557.3944770131993 C1734.321458275448,533.1180987226173 1796.5837134943265,607.9279682584912 1507.6177868349205,788.8600211260649 C1557.3310037347803,824.2005422486615 1574.842133233357,968.0793602687395 1731.6425396939903,734.7146487180289 " stroke="#781e1e" stroke-width="2.1900953076800396" fill="none" opacity="0.11239736398799166" />
  <path d="M499.2187289345777,290.49349338295036 C448.5127768583235,208.3452377054438 647.956062451678,332.8284468812942 378.21444693491554,246.27594791628258 C464.5891535093182,149.4662391956725 548.3928138416346,117.07304665894102 363.2846592117117,224.23099906368026 C400.11273938583827,165.674273848331 493.8849823164418,338.01141082149985 337.9608156978644,204.81268818725127 C278.9617587224376,179.7865364175073 506.2433484356657,399.0420183176054 139.56961974512072,347.23954749700124 " stroke="#781e1e" stroke-width="1.821043544652143" fill="none" opacity="0.44301014114677495" />
  <path d="M1273.862447529908,593.4520869624236 C1242.1926983983483,655.2948165754065 1298.232550072311,516.0605129489691 1273.0558026133556,562.4440971741273 C1217.9014841515448,615.7327370046414 1315.09283212367,730.9415502485556 1275.254375831468,600.8873033654238 C1343.4472577154572,659.4671667975746 1274.446012197707,731.3478232663817 1351.4884210492423,693.5946307013944 C1399.252770814025,684.2037363689518 1273.171804637743,566.0479895206872 1282.279158130419,740.3859395477281 " stroke="#781e1e" stroke-width="0.9389471703623699" fill="none" opacity="0.48633433508583823" />
  <path d="M497.94401571965864,521.709963035133 C502.1097065409239,491.1013244894113 613.6624325020182,426.8336173416193 746.9831568993727,531.7562797842138 C844.8935260832328,483.0703291704675 935.1683369811628,611.3575697094136 508.7066930835485,609.3604588898439 C584.2770917463857,670.1360140753789 583.2410859553033,585.885578302924 369.7090730241113,418.655179644442 C340.74053583459363,457.9683282477148 366.54600153515054,257.2876602714676 584.6104335398761,420.0075769176337 " stroke="#781e1e" stroke-width="2.2238837603210895" fill="none" opacity="0.1917905964015522" />
  <path d="M148.44488556529612,149.2570138862665 C144.80986761427386,166.96001793414342 19.4783992090463,136.3386750357507 390.6243168662081,-74.41182933180573 C440.7369508907422,23.748823575623476 535.6549050226079,74.46564798556682 616.3636730090757,-263.4106952489971 C586.9170881733576,-351.4625558195373 651.7972402608391,-129.255598345188 591.9611256062215,-140.62375039343493 C673.4810188852873,-219.0210410685458 679.2128968779216,-298.0820692945062 662.9772008569944,-136.78901140001403 " stroke="#781e1e" stroke-width="1.1198526740152943" fill="none" opacity="0.4221314868893822" />
  <path d="M496.60697639690767,273.4332180823523 C421.5997788665358,290.33081995412954 310.6229137408085,459.14919956401036 586.5844382871303,165.2853027267509 C488.9322151107366,104.67048977351342 525.6060930064801,28.58382653848932 466.25959987483594,228.87754536490235 C469.4172728015693,244.7839196005892 539.2178187224442,179.8869787614491 444.63710484175635,262.8980598576367 C370.8723220770029,282.07306858459583 541.7937738913367,184.1260117995862 269.04598379537816,220.2370490219239 " stroke="#781e1e" stroke-width="1.2723949889460036" fill="none" opacity="0.3598848302638443" />
  <path d="M96.61328820602179,415.1761033358215 C186.2681537213868,460.03549271463186 -99.31913414833289,359.2783384334951 -111.65527692142373,309.1381291684427 C-41.309862595450426,379.97766024323647 -162.63134474475646,398.7097118104986 -226.03714825614284,388.0045709876355 C-253.51241722251265,339.5374285980649 -160.23239419836912,511.4328749376896 -89.19789933497944,176.67309062842025 C-62.87406932962436,274.4807676532202 -82.59738365589229,77.09743868881768 39.93616110286203,249.0733120637904 " stroke="#781e1e" stroke-width="1.2481518345891507" fill="none" opacity="0.13424794429985534" />
  <path d="M1414.7996287019914,72.51464241479631 C1352.1883232009006,72.81597356019148 1461.6623356664268,111.6439719965254 1251.7132834073022,121.81663465377575 C1207.6078891456966,123.60067117859057 1122.271207193481,194.6716307075668 1124.9496854763536,63.26037312034423 C1093.92887775377,29.27932245843685 1252.576956404467,-25.397160549927023 974.1526546231912,6.500842318894442 C912.7482924296171,-48.37468851144689 958.3866295312667,-11.786281349911903 1186.6287249919553,-212.5762923395647 " stroke="#781e1e" stroke-width="1.9307915380712681" fill="none" opacity="0.15308107191525258" />
  <path d="M1596.0910961363832,548.5848841670313 C1609.3545547309393,524.3621870402085 1533.6968422425866,576.0703340533291 1430.0785637152308,378.9881869028022 C1391.3651156253193,406.1436284704421 1607.7599675137621,572.5527763325981 1196.7031342682242,481.07593959830695 C1291.259925399791,431.65169792302504 1024.593084921582,297.5672744662469 1404.945308922937,577.9139560177745 C1339.0715057843108,654.7724162086481 1239.0450718300765,463.16217621564914 1603.9243753144176,819.7226779605343 " stroke="#781e1e" stroke-width="2.793657520646181" fill="none" opacity="0.3358517424896146" />
  <path d="M403.8050740682314,163.64586039723366 C394.24826507948086,180.24729774565554 442.2340240781042,233.25825041738437 515.0931179567403,2.2626024883608125 C527.8650825875436,-71.88694390525546 337.3976407687187,-163.35552037998684 463.4167546925755,5.718238186402118 C397.49935367031196,22.30154372497853 453.54902273618205,-143.29054612918563 693.125704860089,13.596322204951377 C712.4060171842972,77.17392182043704 856.8768125006586,58.88992256242901 805.4603617855712,108.24388364751297 " stroke="#781e1e" stroke-width="1.9823627164216973" fill="none" opacity="0.40341700536199576" />
  <path d="M494.68965417356173,855.7916309703745 C541.3449321365622,853.5124935664187 342.2108565827975,925.3979738708613 561.9923618875087,735.6555070087968 C659.5705324971834,787.0924199572846 645.1549333845712,819.2103831549468 407.23600597616644,734.1674757776093 C457.12914529197036,762.2310206922659 384.35876233539915,693.618803388045 560.5452825745078,940.5373083677873 C513.5309839139799,907.3748098900489 396.4534095250191,814.6494577138529 802.7846250125465,944.5006785780254 " stroke="#781e1e" stroke-width="2.4284165522415724" fill="none" opacity="0.2804831529995342" />
  <path d="M853.5220592181215,838.065920024287 C882.3255288038731,879.5372545173012 1049.5473318164713,834.499092741346 798.5330125930188,894.2014261189122 C881.2650484182062,825.659025847343 614.5863457089526,813.5101090878243 864.5423496377787,802.2255428806443 C947.9770770448254,761.8331431554855 715.7435751314281,723.1145453078776 837.3669901049155,989.4427711285684 C912.7193323220989,918.5277183285369 948.6347479859959,863.7694676761456 1078.2303210142445,1145.877521913434 " stroke="#781e1e" stroke-width="1.345649239623646" fill="none" opacity="0.2923672825732133" />
  <path d="M695.682321728874,365.9132661717746 C748.1033142628229,390.01478682626305 689.9448325602389,350.8747559300773 475.7379650943401,569.9790401499058 C554.3162468275302,533.8907967557757 365.4108427791909,677.9945620537223 306.11475904681464,547.5772063610854 C265.1475827682163,611.9888209613873 239.9250788672174,714.7283440202816 56.13191013334486,326.20435712631365 C112.43635960347845,419.48548779357736 -36.22183996598254,246.96413015624694 6.958938618655509,412.0481289171408 " stroke="#781e1e" stroke-width="0.9959715700776646" fill="none" opacity="0.48691002032595365" />
  <path d="M1770.0879275810669,1077.7809503292895 C1843.7210929803987,1135.1918797065227 1968.992246770102,1135.8984150742936 1982.3461898650219,1006.1409400598934 C2038.3615487580598,1097.9783083528337 2177.462652960224,1103.137186199563 1758.0788449148054,1102.6080779454633 C1755.412985535052,1127.0833501920447 1693.321102423682,1269.1964386275856 1891.940951184444,912.2118995628638 C1887.5305085062894,971.7058146448506 1957.18463042139,974.253123045374 1941.6393391622053,1135.3922412157926 " stroke="#781e1e" stroke-width="2.2291567796286698" fill="none" opacity="0.13900091420181848" />
  <path d="M859.5364053534997,33.39694839384306 C913.8295058947324,-49.701323913694594 970.8734408406215,-44.977947895465206 1053.7066666178557,22.128918594967516 C1114.47997562198,10.506794330290546 1186.6004870686947,-145.72769411275289 957.039171788325,222.90416865979017 C960.2406129134392,296.07520604787044 1130.9251712168957,410.18180854577804 743.2356444015752,318.5548019135502 C724.6482170263778,326.8371849173069 635.2644455980067,226.81032930673837 904.7544968897637,321.3227276613661 " stroke="#781e1e" stroke-width="2.095347011673976" fill="none" opacity="0.2657778847507438" />
  <path d="M6.967801150212409,756.1089789583838 C31.68420639159345,659.530670855157 199.8913650050662,558.076408767201 -8.956440736121834,920.7313832979405 C56.51002137377586,886.0894576965843 -138.97459514189916,1060.7383857603518 -157.3925248172871,1141.8065075599843 C-249.86749088814204,1211.2869059031862 -124.82005168106352,1110.3630621460675 -280.51541068548505,1294.3982066450965 C-275.4304661384858,1263.2509427488972 -393.4513871633716,1380.572019829625 -345.787630620433,1456.9518286907983 " stroke="#781e1e" stroke-width="1.9592284439783954" fill="none" opacity="0.27273897587097884" />
  <path d="M1428.44267390463,537.1808905190974 C1414.2930241616145,531.1868189769759 1609.7825520730814,438.1628317778651 1234.8545754626778,509.7013717730159 C1169.2146570687805,500.9457637652207 1202.847129452239,587.6207921105154 1300.5243369832417,756.264065462072 C1394.5583568406112,697.3071848657667 1272.7846040694917,574.062075316096 1507.245794763597,877.3783410418514 C1574.664811275496,879.635233166717 1421.7406009065473,733.7463075210233 1590.5457761828375,712.2806065703086 " stroke="#781e1e" stroke-width="0.7021629312031981" fill="none" opacity="0.10675923927713926" />
  <path d="M1381.4075453427042,471.82443905513907 C1470.5058831872107,542.3782968489612 1326.378699330189,547.4286973263925 1398.019204349127,240.31166564183394 C1342.8338320288901,317.68809865021706 1295.8973693234766,243.68463875681735 1264.8981030135233,421.76420192079325 C1347.5926110476842,471.8961417457206 1125.149294177341,594.6372235883114 1128.9071225712426,210.51436035039376 C1064.6050122925176,155.8677972318904 1054.313162821484,295.7528581962697 1085.394990428105,193.57648804845044 " stroke="#781e1e" stroke-width="0.732520436769254" fill="none" opacity="0.29812104108788695" />
  <path d="M353.51584029103293,990.9738977039405 C431.76372438711877,987.7435991202076 381.00145202481997,995.1310312696788 312.8566194169266,1085.8455586502237 C354.041102796163,1102.4859730791034 318.2415240358661,902.884863034963 454.9546442142655,971.0854296588263 C392.5177712999414,900.4254420902541 375.5084403451537,1095.7065183513791 633.6964181268144,1098.2010865867614 C729.1955680718124,1112.8215644187217 696.8179159311237,983.7668942687643 654.5231797515219,1295.1668016654464 " stroke="#781e1e" stroke-width="1.2268369645536605" fill="none" opacity="0.31368283754018855" />
  <path d="M242.20181724667327,127.041107458539 C149.8618060592679,98.59997152814582 341.59689823619163,50.63399287741244 142.46368047873952,-112.42830000047378 C196.35473254596081,-17.267834283470634 119.0610514664051,43.8049829853163 344.7383283477003,-317.1574353229116 C298.15435891140186,-237.97350608098824 477.9896832391631,-292.98938514238887 545.0272044787043,-175.10987332521364 C545.8553915740445,-265.0441444017768 467.6412431360381,-319.78553905582027 509.2538677645315,-140.12344459900714 " stroke="#781e1e" stroke-width="2.5464534656016076" fill="none" opacity="0.14671167761835158" />
  <path d="M1653.1697988785893,437.36204247458556 C1638.893791175152,497.2659449173778 1683.606419447146,570.5555612385263 1662.0293594250436,465.0051194484445 C1720.6299223917276,510.6486635790818 1772.6506075425273,484.6866655819254 1884.311931983119,601.8584407347239 C1934.8533559368934,655.6000092867746 1823.3358730885252,796.1141921768376 1946.3638977057585,424.2425166004436 C1893.6905942180113,376.8477010293251 1898.2639088138794,563.2123184456909 1936.7137722546297,174.42542181325666 " stroke="#781e1e" stroke-width="2.5158703341157564" fill="none" opacity="0.3654461776796464" />
  <path d="M663.669823267424,415.6886259320192 C738.7823772156794,450.10163419593107 686.2857213549674,235.042977930508 468.35640542518047,177.8746208477038 C514.0705609403778,172.27032433735167 463.56522887280266,327.53157748720264 432.0562115016819,427.2322199200224 C488.17768796935525,392.1033503812713 536.5403087916416,228.0857378260896 659.9480866953761,213.0590162242314 C696.1272545391121,151.77546484291528 790.6924151243393,126.29499842563649 791.2593452136728,48.76230737109921 " stroke="#781e1e" stroke-width="1.2087807729992006" fill="none" opacity="0.40540877202015435" />
  <path d="M1430.5341816279079,1006.466200864177 C1364.5078154348741,977.5093970925491 1321.5041874066128,873.9999464687646 1609.1652960427814,1091.7008642976436 C1666.2435079694894,1155.7151012397433 1785.4622409904912,1208.987065529708 1777.2346544425438,1225.8890305726143 C1730.6869635537653,1204.7901758193643 1896.4466584018712,1294.7546167665296 1616.7364706492758,1456.6724018061657 C1651.1337024357063,1391.6437692739726 1508.3308199356636,1295.1963647096247 1856.7564982325166,1410.738352916544 " stroke="#781e1e" stroke-width="2.2457767282777246" fill="none" opacity="0.29442925135932163" />
  <path d="M206.330528107668,880.8797732314686 C289.28016958383375,914.782980257706 39.719825997341474,792.3934820237116 177.8364167089465,696.9362091350112 C224.49310972765477,763.3450765152287 199.13057598255287,866.3655450291287 87.05986526145642,525.1134577106629 C61.622704582463,587.5689144637761 98.51950638830544,655.7306760331107 -150.31674578223004,304.9986218559074 C-213.67855370715353,253.47594070596725 -6.522695540189545,110.47342201454583 -113.30266057562636,515.3135799478537 " stroke="#781e1e" stroke-width="2.5826462363428124" fill="none" opacity="0.13782874968020514" />
  <path d="M44.35084160154787,460.4223012468024 C75.31235059648401,395.0704073875615 110.24559468328044,655.1436414327052 -113.59118674993312,401.5437421877445 C-173.60620970580237,338.5061915270493 29.332062386359837,280.47849637706895 -46.65932536203184,388.9151816009272 C-2.6384010563214417,349.38954277467167 -49.25467636523362,254.97339290315222 -141.0378498823795,561.0728710191252 C-131.75358934709737,584.8073405119663 -264.0325997273683,530.1461075879308 -138.2914550218109,497.3609712665698 " stroke="#781e1e" stroke-width="2.8959712647832165" fill="none" opacity="0.43569836781708726" />
  <path d="M949.4323799834227,1005.8465848913468 C876.1932608865362,922.3667953430717 882.5564637000025,1184.9203810427211 826.9870888196,781.2754012918606 C751.3606756189595,753.6925009282605 627.616621881552,789.4166734136245 748.4520578971121,540.1039720041883 C812.7416397677921,485.3216036856955 682.1207668708677,500.9294526790894 830.9600019513796,500.23768271032543 C892.9597534815695,474.9213485040008 973.186998179398,460.36426801799325 697.8585699848317,515.9620934026815 " stroke="#781e1e" stroke-width="0.5243403428330652" fill="none" opacity="0.16441982294051155" />
  <path d="M810.1904933971583,1024.2714573232413 C907.9812684612822,1121.729914091842 640.5954461060219,1009.933755431633 730.6556765798922,1174.7963074470297 C802.5476346904591,1104.2659931388653 714.9778691536692,1116.6134499911352 642.7201985735715,1341.3532537979786 C585.6565639999308,1364.715902129583 512.0086682925048,1144.1958083285047 416.95772000406043,1573.7440736744286 C341.33599342153343,1653.874509142218 255.4741403189095,1703.1164403752086 205.01342888941667,1813.2330467661502 " stroke="#781e1e" stroke-width="0.6601720006892648" fill="none" opacity="0.4594296485031153" />
  <path d="M527.1436358876097,62.05717728073441 C584.9049117561169,-23.430454633732836 423.9812471089725,-125.54342781218895 414.9770813409357,287.22747347943005 C372.65532747225103,327.09437481778946 510.00559016989644,381.60645516188123 662.7380324933663,327.92134292306747 C690.0506875864402,356.1483043053212 805.0611386034706,512.2175475882641 739.3851078189442,149.2477454716304 C662.3063748704525,134.4942448025055 777.3010007291631,213.8920039457805 821.9432614270938,341.6129511668116 " stroke="#781e1e" stroke-width="2.362357792920033" fill="none" opacity="0.334423345001009" />
  <path d="M1293.1543393552872,486.37591024371875 C1221.2118665976857,580.257890623297 1358.0444592115414,530.8289972967951 1081.9472564310045,318.01374872412015 C1142.573476345836,290.7223488567199 983.1093473685522,398.8362489546345 1066.2979090933557,492.6907698653993 C1026.4209446287016,417.8338856193483 1253.5054937438526,405.80005443293794 1121.807544304584,607.5648605962269 C1141.7929518196986,581.5926728462907 947.5052925101162,782.4989917406106 1296.6758984266503,579.445372885674 " stroke="#781e1e" stroke-width="0.5386648281703078" fill="none" opacity="0.42509934753331924" />
  <path d="M1752.020926326243,777.754309989312 C1703.9169757506686,826.6341305308399 1948.27084075482,698.3408032555035 1927.1409468702377,553.063967769729 C1876.5581306153904,521.8996415916258 2063.0539705305255,528.8352992963336 2055.5924374718043,702.5026761440095 C2038.5578449418633,755.3429899322555 2198.0444604141694,563.8260923238387 1901.4570791858948,838.3321145134272 C1879.9889062284446,824.385910547537 1982.0720619558376,647.1041941925507 1890.2751761840125,994.0870197987005 " stroke="#781e1e" stroke-width="2.9424566992492873" fill="none" opacity="0.31980267638965715" />
  <path d="M1318.9029348732922,1014.9380180191325 C1355.4849027936825,1111.5761169321866 1504.1313620512608,1207.8320992056806 1481.7787582264536,1111.34010277618 C1508.093607220024,1065.1482036857722 1546.2714749067086,997.4514983069539 1633.9747678033677,957.0464939106354 C1609.283152972318,1025.5587793034701 1461.6151891949478,970.4079625538915 1619.5656358823496,763.1593152780724 C1642.8874784707089,717.1039451207012 1679.8456963264666,946.4323011737072 1711.3914780092475,938.3291119385129 " stroke="#781e1e" stroke-width="1.8578727950512437" fill="none" opacity="0.24372330556474184" />
  <path d="M904.6517161426516,586.6187416052986 C863.6078796023878,547.7786993827992 1013.4284167585581,592.994057345463 678.988072343478,578.6125236062428 C718.8213264719385,658.0487584304326 582.5147162055757,493.84503564933664 651.3700502049055,606.8170070696563 C583.5039832266763,685.3272500667679 648.0683195903981,788.220950503392 605.2654331650847,687.0272880061591 C633.752791129223,743.8406656950642 774.8684710500534,743.9668184280383 729.9466058657879,711.6386174905394 " stroke="#781e1e" stroke-width="2.964503067745735" fill="none" opacity="0.29938918591077435" />
  <path d="M416.7701807679103,147.4318342212037 C467.4081849458904,212.38297251277876 529.9300212507346,276.27837400597195 302.67725696500156,267.3662837864697 C310.0764689306387,308.1183489889946 304.087824299246,397.65111316563076 351.4411902100229,216.63735030557223 C335.6262798644305,199.9211180956455 427.515108320621,414.44476451627503 443.70082846496643,121.02584478256676 C523.328319054491,195.65161007230455 374.64324049171637,48.909081929515 504.566446109786,315.2269075939456 " stroke="#781e1e" stroke-width="0.966251380009165" fill="none" opacity="0.4141941408293691" />
  <path d="M37.91951505421778,163.81529954406582 C-50.0247976462565,154.6492106569698 219.18069971152673,138.58355363502486 99.35712295656364,75.05275594607474 C26.761453526546305,26.492355665789177 54.21976558883571,-34.60443123546192 315.78616000086413,286.5351158219643 C415.24840668885247,339.3312129787075 252.26117087193305,92.66030800894163 141.6833438306354,384.72492226169294 C62.736027573823506,419.40171294943946 108.59126754729613,198.73014485682208 388.52230748412353,376.2568040540861 " stroke="#781e1e" stroke-width="0.7082043252945542" fill="none" opacity="0.36153183629111996" />
  <path d="M1041.8614705104671,493.0599585837689 C1091.6071078378493,444.22526608851484 886.2796092857326,579.1916225879099 1038.7223819020041,321.5087238703676 C973.2232306280097,342.62618748682473 1004.8380885944978,471.6813898268345 935.3142690733191,192.07923977253753 C925.2672391448382,185.861431362987 878.4199340616999,167.28591659450865 821.8627543000914,-8.81534396060485 C738.9323146582318,55.166922951803656 628.7958593526864,-90.98403651813001 759.0726624223508,-204.34426485768992 " stroke="#781e1e" stroke-width="0.8213927045520237" fill="none" opacity="0.41875999127212593" />
  <path d="M478.62735559905275,922.1799938652749 C563.3274163443335,1019.8572675393509 587.5911231902035,867.5463954068932 567.3672997219636,880.4403872820028 C506.03786255311434,934.4886065062564 481.02442796021603,969.8041151185018 366.6423945308482,744.4735262226815 C445.1785421429845,758.3355951134344 358.3830056435396,902.880358741173 122.27793108796644,514.186685309747 C220.20280633970347,468.06262520472455 -49.466621961906924,436.4214158905568 145.62214047316976,710.1889380764189 " stroke="#781e1e" stroke-width="2.5904937700625315" fill="none" opacity="0.16357680691432544" />
  <path d="M835.7465903267207,4.438226001559045 C844.84344877032,-37.81300894139302 941.1185426160821,-148.75641169987932 1070.167256449622,67.83100055647613 C1008.5468877636799,40.98389554587514 928.3383994078279,61.620292798475916 976.5169175562321,230.78854951008248 C1050.8458016917073,303.55806783987066 949.9340292269735,413.4568195306647 1051.2923889921847,227.44885211677385 C1044.6818926074516,133.52976696833107 967.1797556781951,368.7909480712692 1259.441671906262,45.93524926347942 " stroke="#781e1e" stroke-width="1.1962659039981451" fill="none" opacity="0.43316078721206885" />
  <path d="M10.933183486900901,246.0838737782686 C-3.617327469414775,147.12345835306996 145.34736649984367,170.79832441215544 -187.88010501278592,138.96741968306662 C-197.40797594946702,238.2444576206729 -93.95476290782466,-6.363849456188802 -264.8163037643386,97.38549487004425 C-350.8833093853385,99.23855496352255 -248.96933128347354,257.2060481954246 -364.32023037585134,167.0922945561189 C-295.19941285906225,252.22078287782296 -233.9929147650211,357.1611009343445 -568.6879728848531,101.18402290497224 " stroke="#781e1e" stroke-width="2.906471165145001" fill="none" opacity="0.4604599326250447" />
  <path d="M1546.7522897415458,176.01798005770135 C1534.5234811758446,147.69797770044786 1574.1824296128011,301.6898961637082 1574.6780678458222,213.6445327749328 C1582.6942629290024,197.99245913104772 1662.18499869371,380.50836637309806 1803.852363196691,191.76291780978008 C1883.7824637701365,166.03249395512194 1644.2595738810655,347.61073648401475 1873.5311079188507,427.65358775122286 C1825.672776737958,429.1253035069416 1852.9274842233851,230.25525647313816 1852.396792474491,328.9915228709066 " stroke="#781e1e" stroke-width="0.9505658830241005" fill="none" opacity="0.23932887939331665" />
  <path d="M1783.1999827534314,360.87366039642285 C1863.766159464213,405.1543811052052 1980.0651424546102,230.25596606394868 1702.2772913771669,118.60041748706803 C1702.4367880134832,101.46616297033876 1602.2029446109595,84.88394143720316 1868.267018483261,219.98440471893107 C1830.5898295968736,196.2997270052072 1725.7255165654572,172.45757521261183 1670.7723551150298,458.7455022119078 C1735.4839543575633,483.5947195172276 1519.0401167316186,630.6209043882579 1742.1535264438344,373.98573739338326 " stroke="#ffffff" stroke-width="0.8955051921608785" fill="none" opacity="0.14188456878560043" />
  <path d="M613.5736007714381,411.9136976003481 C644.7514455787244,379.8140349381796 610.0946707712435,529.664241040499 709.9175967296019,162.589881169354 C803.1364782140498,91.81141165443162 593.5486308673969,214.4221610680425 823.3949568846842,258.1778303846039 C861.7041193558256,220.35973962070955 921.0984733862724,59.271835201479746 974.794417433922,400.45709907786784 C1073.9772373498115,396.28883418653453 970.0217529527379,416.69543315166743 737.4260686532532,226.22221215602897 " stroke="#ffffff" stroke-width="1.3603187582571568" fill="none" opacity="0.04764817585049247" />
  <path d="M318.171561301578,442.1438121348573 C381.48944614891275,417.3326122673278 206.26424778240676,505.7029600260873 259.6100543375146,657.2988856938217 C295.5328709048074,711.6411442629815 126.24252833074317,712.398864067567 441.0095387413991,497.9322374613348 C341.2064950984725,560.0896748210355 576.8573269471729,440.03675495270204 626.9758113957146,400.4783330925456 C660.5574076187243,485.5955308822703 814.9539237682799,406.2775116936148 516.4993912729135,585.1744175135767 " stroke="#ffffff" stroke-width="1.037332998565176" fill="none" opacity="0.14572374302638147" />
  <path d="M216.6021578830123,146.50200195933354 C300.50537121649677,55.74901309586453 413.786392462409,188.96942600655257 98.4828078547605,-12.531000784217724 C158.38177158738515,0.028042288917816904 35.125838310921665,-33.22660560938118 135.24502849499788,-70.48081147385594 C104.44665662161472,-81.57701973250603 274.31253236951954,-223.40078510847374 -59.74907209950618,-202.32728445252275 C-63.13823131761208,-215.72113572433818 -101.38418304407577,-327.57060768353773 -263.0998923571982,-296.15587508303815 " stroke="#ffffff" stroke-width="0.20247104854099224" fill="none" opacity="0.07009213183650834" />
  <path d="M21.670153105742855,257.4199996119233 C118.86427074501137,309.20496828083714 169.42963251845393,390.11838208793114 61.19099006641338,65.57299493822032 C-13.82041621143837,152.64262381794842 235.26364310328572,24.316586080918512 253.30185094358959,293.35837069769127 C257.31056317806724,281.12632950979264 76.54313164535327,281.2546236398234 464.30238904664566,225.64694501085586 C406.2546299728742,308.187111505639 631.5096880503418,296.1597969942119 221.97644036956885,149.23796529517767 " stroke="#ffffff" stroke-width="1.063061361805062" fill="none" opacity="0.0562493467620586" />
  <path d="M981.5517821506737,654.5671731574747 C945.1870666522218,725.5760000167681 1179.7869819946536,564.7380327626801 855.9784767159217,526.9614535755592 C865.5356178136092,438.24453505473343 890.6104480561893,634.4888698755094 1095.505681801439,672.8040031647103 C1134.4717059012737,725.9358159092975 1286.7538870157086,580.9439225274454 1295.7058431917342,498.5368018178477 C1279.4071359334687,495.6949761952612 1234.603133944142,380.1420962592461 1372.0116376771384,728.3867006608928 " stroke="#ffffff" stroke-width="0.9586840729643586" fill="none" opacity="0.12310189705050066" />
  <path d="M917.0909113778475,742.8502270081705 C970.856209665635,749.7846787059599 783.3844561397298,591.4824072467209 1046.2778972381514,793.0483211206044 C1034.078618686149,722.0525325597253 864.233885557247,848.8008633539885 851.4688601104485,607.8458787226839 C816.1222432757788,682.0625467582809 764.6525381091543,494.299918880905 679.0516572883163,368.7841108960772 C709.431513364776,358.71537992379433 755.3859618636864,226.71257300482364 550.5490303820576,551.1660254237606 " stroke="#ffffff" stroke-width="0.6974175539649226" fill="none" opacity="0.03724104272826287" />
  <path d="M439.7088889707294,38.701366931540015 C435.4318095153313,-18.281716122107326 506.2077548263589,36.26295511646803 288.5920946170696,47.01125478621794 C215.56752557524402,-11.667191725231213 121.07705566872104,-10.26258696332004 102.10605509432128,-79.72745629895905 C131.78520396178965,-32.935947409925575 218.98365058441277,-140.86216833169826 -104.4213260362634,-52.94424254188988 C-96.01425618077599,-3.9305867430430794 -272.1214675517681,-108.76966853696902 86.40697715684644,-300.5184683556648 " stroke="#ffffff" stroke-width="0.9841916157788215" fill="none" opacity="0.1484377795455648" />
  <path d="M306.4822681849924,692.0996663639725 C365.2925566056092,709.0911381384399 286.38549785606574,796.621567611918 215.34926239967248,877.2883950711573 C153.62907587891317,889.185372000357 268.570207584566,998.7679004728022 237.24669119114807,716.340858735899 C200.2838711714008,756.98983854002 257.25250899157743,661.5418451799624 3.012468094703479,668.2351540516645 C-63.60727922689972,698.2978991551654 -32.41563169079126,674.3724440464928 -127.53929674247019,747.6985219649646 " stroke="#ffffff" stroke-width="0.25549543278130765" fill="none" opacity="0.07016449243547027" />
  <path d="M685.4930944866019,139.91184783271095 C701.9682459056519,133.32295404595612 872.7287399377698,262.2883997004823 484.53943968185973,327.14589390495007 C447.1641228114842,367.50968813247914 441.70170201217877,252.22531247422117 678.0386482342427,301.99376114757433 C760.2225689424897,308.6873883426076 700.0129703781699,116.59213369624018 880.6988140822041,378.910830636038 C803.7052143444917,456.54894054448624 960.6406734077639,389.1323042783232 1006.7343230480607,439.20884712216997 " stroke="#ffffff" stroke-width="1.0243568337131694" fill="none" opacity="0.11360976975430277" />
  <path d="M497.671810234437,97.97764288644997 C518.9930307590553,142.05275531294535 695.2625840354476,258.28345892012754 692.7101277495901,-73.95129122949525 C684.6208879946081,-45.70715435223012 531.9070378215122,108.06776539427871 787.7473118820881,-89.75515283762222 C694.772620765233,-7.432684388414216 950.6222030461062,-280.5393202370713 685.5088743716008,57.65336359561384 C701.5411905680679,5.3571634759722855 523.4338170828186,-40.42749118548339 890.3696029806933,34.00986115142918 " stroke="#ffffff" stroke-width="1.0378737119337351" fill="none" opacity="0.10866973605418023" />
  <path d="M488.39935604577295,329.18320036192927 C505.31402423588275,234.93118294026885 414.58256826572494,336.19541634507414 478.19126678764803,357.3990521793128 C434.54976480519963,456.1831226530121 458.3013289047328,434.2764666198867 662.4926496878884,324.92787226137784 C590.9034082661342,289.56408128407304 831.4640263227154,313.0388807759115 900.0942535121421,123.26053958681291 C809.7052885762503,195.17348750374174 1003.0990938406896,138.869307028258 844.1739011234438,104.37514246002198 " stroke="#ffffff" stroke-width="0.6264659468656211" fill="none" opacity="0.06749822496229911" />
  <path d="M1904.0643062193344,832.6485436504425 C1971.9280311951918,888.0051852620685 1856.2233983110696,737.9547348107499 1734.2436424761327,991.3874387789275 C1678.079777180029,954.7237567915515 1700.9174941687952,968.6165710646194 1854.4254801324228,742.0868277468302 C1856.1403593960167,709.1291270815594 1801.6415874256668,831.9825862329444 1691.430189005263,817.2549725190156 C1696.6482191778268,729.0968940251058 1759.695013568537,738.0154568977952 1682.7531006909971,851.718476705438 " stroke="#ffffff" stroke-width="0.4546907637036605" fill="none" opacity="0.06154896750776881" />
  <path d="M578.3324723042023,312.00084220273715 C587.153996949813,322.7078941652903 743.4726688559317,119.70378307603465 586.9086515138974,392.30148102552187 C650.6783016796674,477.6163886767441 484.1892020419795,447.0390698773962 640.7883313604087,147.6005859057834 C644.4148952743386,124.08876859556494 656.3057294568453,-48.82905223863693 840.164880395794,389.54401227430924 C872.8141281392371,342.0316971557625 977.5615611536034,192.9810349437147 799.2812048991095,234.01495128768025 " stroke="#ffffff" stroke-width="1.2103037076314467" fill="none" opacity="0.06450889942631191" />
  <path d="M1785.107006106742,1018.1418453924654 C1821.9584286414674,1004.1518053078197 1859.8279816647062,1150.1249865726606 1660.6318389580301,1194.369254325669 C1624.2062435181422,1113.886141434538 1624.3029095083243,1098.7028551951448 1431.1881177172645,997.042971057169 C1508.9554410431558,908.5578485674914 1310.8851958505238,1114.47756631815 1536.2953240965194,1053.0336004956303 C1482.9580617818544,1003.6900361139091 1523.0576594185356,1172.7364634061437 1644.7221959450778,1058.1766454172605 " stroke="#ffffff" stroke-width="1.5756252440556169" fill="none" opacity="0.1113717868843257" />
  <path d="M888.6579960186382,489.3119060304894 C911.0498779206655,519.7023662330178 1042.857493605938,364.6763743570637 1044.6309604549263,605.3829077860239 C1051.1459385730443,673.569617488459 1141.3679106908348,716.216298635321 874.1407150493434,518.9238517489014 C891.6774727016259,616.4974711944252 914.7608012820083,545.1980541019714 778.1244440031411,397.4273307664163 C710.7165057857786,450.25253541067525 604.1605624424396,255.237778838511 607.5290432563431,186.86808752606137 " stroke="#ffffff" stroke-width="0.640290336987106" fill="none" opacity="0.07173438299893846" />
  <path d="M1036.5119016407468,377.0070841876267 C1047.9529504152033,426.2124210018411 954.0253905111493,260.99039830742754 1031.8141026736896,359.23639119180876 C1015.9871586689316,298.4563478119981 1154.4016687476478,474.581593128128 1245.231687422804,226.4796272539387 C1256.9982729724381,262.28354419825473 1396.2840555698137,190.82041618751475 1385.3017267860755,41.715394763902 C1332.1489239344128,-1.0954189797586054 1575.7437426039903,232.86683686898715 1516.6500836128662,-86.09663139820341 " stroke="#ffffff" stroke-width="1.3730915638017653" fill="none" opacity="0.08690392307111829" />
  <path d="M834.462165846287,703.1013975010624 C906.4002534508821,607.4275144656565 884.7373235528179,839.2171606002125 1026.1408437825771,703.3378912986919 C1071.3158444292606,792.3161766558658 1030.4408083449566,637.5047114548138 1260.6792310645783,793.5161434701215 C1294.2794419506913,721.9083661329053 1116.0376730245237,732.7758808466675 1124.5228657930263,643.5229809532541 C1054.4345313375477,692.8120564634326 1046.3796425366793,793.829161602719 874.8377380158213,721.7093309138925 " stroke="#ffffff" stroke-width="0.5182998440444964" fill="none" opacity="0.03907566548452189" />
  <path d="M1789.285118854827,488.37691801451183 C1793.659172256873,546.7730485256762 1788.3956834967755,556.3327991248873 1968.7415949646343,635.9881623777278 C1958.8837827273878,539.1779106148821 1805.1825098621277,627.393716720984 1857.4434609219102,857.8644140980227 C1950.5150231351274,880.8618794405633 1947.1633612928183,891.8200721266899 1654.3175210273796,1008.8905026310819 C1610.6892712017957,964.7097221704272 1726.5339664931023,910.1753242593143 1677.6490675058808,854.0612975251904 " stroke="#ffffff" stroke-width="1.6396787680359943" fill="none" opacity="0.16850368990288708" />
  <path d="M1037.9547524153027,308.83948702591226 C969.7775273397285,257.5252135369876 941.1423292601676,395.9398877824376 1218.693270718616,207.8340016267352 C1249.7532800756449,174.7263571294866 1081.8058086967999,291.40633130597655 1276.0320449846395,416.4848744253002 C1279.4437183498742,365.7511249987213 1304.976211329871,350.62431543767104 1089.8394076646694,341.4741083630896 C1051.3019105561048,333.539404209269 1183.153125648937,511.53527396515824 967.3014422847672,538.2897949701785 " stroke="#ffffff" stroke-width="0.780214300586275" fill="none" opacity="0.026629985862484943" />
  <path d="M1425.327034921818,556.0300874424532 C1428.4089465576449,475.0722239985736 1400.72557168125,707.434970591031 1395.4786307082347,728.7151313833142 C1392.9118837523545,735.3824633926699 1347.6365850908337,911.8093044529469 1587.191037732191,646.6861614994987 C1615.6155645101767,707.3052356019801 1675.8705810945548,697.5905706699666 1484.723579935608,738.1554060145668 C1422.9396423578744,706.3712002643642 1630.6505671049815,707.0741061929816 1617.331351953323,571.3759034914704 " stroke="#ffffff" stroke-width="0.3088774783791621" fill="none" opacity="0.13582689002330972" />
  <path d="M26.919669527008807,206.65632526935246 C29.815708795698853,203.38376284452556 102.5414309311854,356.72399658864316 -147.03031935302317,342.3483860799284 C-141.3180869144888,386.18631430848933 -252.6869902817649,200.84932588359163 60.947211060641905,306.0013327017076 C16.21046227929061,287.3941279164922 202.2215658480199,480.3721158704841 227.8280497536398,287.2930618457569 C186.15052502139937,203.79096384268405 399.2699717180845,149.53322721452258 320.33978681952067,375.95641029165984 " stroke="#ffffff" stroke-width="0.9446487051804424" fill="none" opacity="0.12405910077704037" />
  <path d="M271.6699028435936,214.8268420911243 C315.2443702448435,154.33586951635863 116.95129400264386,411.44558155910863 456.23611736772654,93.88391459671635 C485.7943045063952,14.209408200580327 435.78108128320184,267.1050032052362 691.1651063330077,-64.47929532504054 C684.6062977626135,-35.10078609046707 831.9079342989887,-227.8967581663731 736.8469019268466,14.209633593902879 C669.3573515446174,44.89386989790452 745.4581539642274,72.35775690812864 783.4709494731633,-199.6206510811184 " stroke="#ffffff" stroke-width="0.3672946482526233" fill="none" opacity="0.08893911852870898" />
  <path d="M42.22925354123632,449.5055017244031 C136.0088076793862,535.6381827895866 -151.44410463293613,306.06740302263984 51.58662513246426,451.2423885479512 C139.94507406160767,526.0796364066331 -101.19227734623826,591.8256697752046 24.394968914693834,584.6692596350981 C-23.44801158675574,515.5382102206565 -116.3784584506252,502.2298030064421 171.72517240514208,731.6562384788663 C131.8250435600792,682.26582183252 222.61431514430035,854.4325171036601 159.8295809928233,488.9205966477511 " stroke="#ffffff" stroke-width="1.321220418720169" fill="none" opacity="0.1232925270103014" />
  <path d="M1850.3121128540695,804.0448479683355 C1889.6759257193503,808.7025584058421 1878.5627902720623,883.971798596626 1842.5331919731248,713.1761733663973 C1745.3169478315122,624.2015392702374 1793.4311920353946,646.6177281044909 1904.270947847106,727.2795444960789 C1866.233775134689,643.8663694959947 2057.243537946764,849.3288871047234 1676.5992139253551,788.7612201029501 C1743.667701498957,837.6868095224366 1662.9441764954272,653.5366335010565 1884.3352116469098,996.7061593353457 " stroke="#ffffff" stroke-width="0.776549753236571" fill="none" opacity="0.07751956789787139" />
  <path d="M619.4609810478532,1079.732698629237 C619.1243774976124,1100.4623144445272 731.1936611387557,1117.986805687744 468.9672654014721,1190.6449662725736 C437.3681220411142,1226.5059401145093 402.7346169034039,1257.0258161266165 263.69049153584103,1094.8660073889232 C235.92888954329078,1006.6163267603048 164.51766467574777,1042.3075409352734 228.7161215701228,1152.286718695854 C230.6026906368337,1140.2857153415866 345.37129106810346,997.0203694295747 171.61288741137494,1038.5327581409001 " stroke="#ffffff" stroke-width="0.449102897046366" fill="none" opacity="0.04927613418788648" />
  <path d="M397.5712237969965,147.99488253474902 C416.8165516855804,164.7673716733559 401.282617221849,235.3951105001147 180.90840816891628,97.64116193103933 C274.48487529288764,117.7636192495584 303.69472157187795,8.386309119347189 -52.62422916413158,80.73902667401268 C-120.02434279245202,47.35263039531158 37.92203403908627,119.19629890801656 158.2251627396197,320.0505154700104 C156.63875946511376,372.72293182187104 7.809772225238476,492.249726533865 42.79645923000038,397.7187681256603 " stroke="#ffffff" stroke-width="1.3969984804417934" fill="none" opacity="0.13488749062603797" />
  <path d="M1585.3099492378994,825.1421892933952 C1663.2792606971238,786.0901184623541 1650.5275880820307,970.6707551275257 1794.5120971441006,773.3830848744848 C1756.9860798637685,716.6815228696983 1858.949287149497,840.9913558707872 1953.2169040130243,789.4548184852041 C1937.761519954203,855.2691273260548 2108.8418829211478,617.3024017897629 1899.9967862093235,624.2301095094805 C1834.2353568160324,570.8894025404006 2099.3461389263357,629.0198089815799 1917.8849125632505,432.6671048411217 " stroke="#ffffff" stroke-width="0.43689595073632786" fill="none" opacity="0.03414192110855984" />
  <path d="M978.7826610830512,752.0070057085534 C1056.0222894156639,778.2227960208602 862.797957219764,702.5909859560054 1030.7460385945433,738.5258962728522 C1064.209976508516,703.616659898823 1122.9315484472174,562.8940822356084 833.9837557625337,834.1140821349636 C775.5897676503912,771.8057637396988 908.6997833432276,858.0381498680285 591.1277382655483,735.4443002294128 C686.8801134904099,666.4575163401489 724.8323068393239,755.6332753394663 463.6297317603943,911.000031327896 " stroke="#ffffff" stroke-width="1.698995205679151" fill="none" opacity="0.15966502014246012" />
  <path d="M1032.970869716559,749.1821484187 C1026.8163384937657,676.9332822014178 1230.1459741984274,902.829630791777 784.2188188646287,728.7643145994127 C739.0448209687958,804.8364072309203 742.9772093561387,608.2765155046354 926.4412009135508,537.7179509519634 C872.6482218906441,597.3498448631136 806.1601133911194,433.58614543536316 957.1576503762388,757.0683044609896 C1046.203593514884,742.1843195820653 941.0611494596994,752.410387041259 894.7865995887255,615.6684539871751 " stroke="#ffffff" stroke-width="1.605531900618985" fill="none" opacity="0.13285509926281389" />
  <path d="M120.06733591246274,243.28410775520848 C206.93730947118016,240.06373263854036 37.4763684878411,315.0369713530529 207.4423384651933,269.79384273652664 C274.1739095236377,347.8404919763269 198.95479427805,241.0873377439043 143.2336092888231,48.70920244549572 C66.98139463475343,35.204875926876326 77.33329040661854,183.61324977038421 321.3237254531531,188.59217185966403 C343.86259010415046,172.78712266640477 419.409810223933,52.92084164586677 283.9237766933169,84.2363037652728 " stroke="#ffffff" stroke-width="0.3947204688074622" fill="none" opacity="0.11514434664700085" />
  <path d="M404.0438948758353,1074.6625648309757 C502.7913201252453,1106.9648410162536 467.87999257533255,984.0876460578577 400.49959803738363,986.3644477709818 C483.8724478521601,1053.3705691350035 586.1585673260971,884.9705626153421 477.48444654717747,808.0036719271238 C417.422292989075,780.0081164144141 565.9088832282603,710.416021883636 511.476284533401,788.9506688335864 C526.0588818070268,883.5887808084087 478.31021002456293,606.7215121773377 739.5837120893231,738.0026810095794 " stroke="#ffffff" stroke-width="0.5301046874255737" fill="none" opacity="0.08289397439436902" />
  <path d="M175.23474129999968,43.890056357358624 C137.972380312574,45.41848297744284 -23.087468291059594,-78.4425789175483 -13.758403571614537,60.27827309478824 C-29.588600013123653,18.52364763917638 126.40635181038957,238.46489856048072 -128.50500803430967,-21.378190112342587 C-182.38533820709662,-71.22965114297936 -149.12635360664527,112.50413713927506 -165.90377575701677,-136.0765414265494 C-261.46794629317975,-179.47508779846225 -113.48364010987902,-15.785063051019506 -335.2479466532423,-155.26711651377462 " stroke="#ffffff" stroke-width="1.242832596261174" fill="none" opacity="0.07002502273040227" />
  <path d="M531.5374680787236,902.0491823524026 C551.8277484881424,827.5419559795533 352.1466420788719,985.2261574285031 516.5962377378567,775.9875011805902 C515.0557729385025,756.4987647981559 550.5088272777651,903.7974137914116 751.8413305193117,855.8002368228572 C795.3725553113194,899.3777328441937 786.516527506903,752.3844667669156 951.5585126328087,627.907946197434 C905.8246711611057,539.5140017884754 784.7276090767753,811.0275738118908 818.0328942033171,797.1260747912995 " stroke="#ffffff" stroke-width="1.115188963953615" fill="none" opacity="0.1594897284259427" />
  <path d="M1470.771036872044,476.6645684611002 C1481.6440976431522,449.1162465348274 1565.0811024271884,625.1275911491989 1632.1538130906401,430.4416670105491 C1728.123853662983,400.98046878332275 1511.946006329722,454.9019780558486 1563.0199875310482,183.80317957280704 C1575.4297418848614,219.79337308665697 1718.4407173699924,382.003375812376 1549.1367780397688,350.27831610538857 C1588.8687126145385,342.68316012370906 1468.861124739752,432.94073426406607 1680.4679376032716,213.42308967747744 " stroke="#ffffff" stroke-width="0.6300512762524806" fill="none" opacity="0.09354015461067203" />
  <path d="M143.7824605106819,55.656825200663825 C67.9531454105819,92.97178220925124 -12.046364601380873,197.2330872270719 370.41494820125,160.86615234266634 C445.15749473889184,88.90745043167055 412.82577030615187,296.3134366308788 276.70679754347043,52.39725071139057 C222.1046545992282,16.560795513138203 345.22423286459576,55.38699437395766 352.05783012135277,-163.90650243399872 C273.57161818481103,-231.93523536841258 368.96722559946124,-3.349124164361939 574.5135472701393,20.787715480717367 " stroke="#ffffff" stroke-width="1.5324894948901524" fill="none" opacity="0.07999047074646067" />
  <path d="M667.2967224830126,62.97132082669759 C758.5544767172823,152.86935959420012 732.2447415536989,221.46444625334078 729.9923404807158,163.16320974485802 C646.1265556223575,93.23214385639679 745.0877046805247,82.0975020529963 697.718610871284,49.6615656381029 C692.8071482041577,135.0511276918287 718.4053851588653,73.20902119237181 895.6633654807042,263.80600599080753 C831.915319339861,222.90576444467553 780.7634596545577,142.2634717392212 811.6802064271651,28.20872381884547 " stroke="#ffffff" stroke-width="0.7635702659695165" fill="none" opacity="0.05457731148430858" />
  <path d="M1285.352540284166,478.968294617519 C1251.543177775442,574.97826133304 1284.0544378204165,629.1261943692209 1060.2957476671409,416.10701294879834 C1149.6702095725066,319.9294030619664 1084.18116349602,243.52823001209157 1098.8820095858528,528.1677524160173 C1184.1188636672775,573.432137827625 1033.8317896000858,599.8720570609779 1075.6712791020432,674.8408401173099 C1175.2209362467154,614.8317427413374 1214.7358811643298,760.5495709558109 1018.0795458937781,613.306775331009 " stroke="#ffffff" stroke-width="1.270940202654917" fill="none" opacity="0.0796506548478013" />
  <path d="M1596.8254922816418,607.2957996714501 C1559.7898135367057,676.24073138428 1492.2263363608954,596.9980535250829 1521.9186135873924,494.23832944616333 C1483.176341200542,439.84020274802873 1588.6193519809663,537.781336520132 1716.967650510326,264.04915180920966 C1703.3419698050693,353.5603218818252 1860.4443408268658,291.10535560398444 1528.2306953099292,227.85237688505637 C1512.7509188625825,299.71023110928047 1517.3844527883991,127.04354736169566 1574.62527109432,264.99907830322445 " stroke="#ffffff" stroke-width="1.334694899817408" fill="none" opacity="0.11233258841450502" />
  <path d="M72.46658349354433,1040.9975796910899 C58.60994761484899,1038.2706169012233 101.0080869384006,1202.0210824657177 -142.53700273415066,1084.8845021339425 C-176.68767880450412,1085.370453092086 -26.565813195875563,1189.9941717531694 -66.1572457319181,1127.1509273429629 C-39.33335394622347,1097.1333947854203 49.15567366917176,1060.7063286741995 11.896123283673234,1039.8679497530402 C52.24156028081592,1116.5640597810552 -80.66831252177703,980.0577880351992 -216.89492927794046,1133.384656360385 " stroke="#ffffff" stroke-width="1.278679101618218" fill="none" opacity="0.1449508220716132" />
  <path d="M1859.592499883614,60.6516452431524 C1884.6213091932964,105.8945530486955 1736.1578208365688,121.50246483400183 1637.0262291432514,256.15179856630317 C1694.6224629716298,200.16053245339427 1762.2981756618115,186.13692752127406 1871.7336729359176,171.52911735930095 C1854.6064874887193,260.8197315021161 1979.1327247393206,143.73944577999 2088.86840327942,54.016757798562935 C2110.995130147806,-33.08978458106721 2114.9468711671275,-81.01667503516882 2069.866788832962,-73.16612047815732 " stroke="#ffffff" stroke-width="1.5786412765147455" fill="none" opacity="0.023775286220627117" />
  <path d="M1398.9487478814024,291.20139213780345 C1359.2671153167685,291.0027529119059 1231.1561486225728,210.91647026348429 1349.5866990771842,195.89275421440806 C1364.4086512342183,115.16157142487751 1504.5142585461035,321.406220633649 1461.0005003815334,49.07808868739423 C1376.88980167566,137.57355347482743 1492.0188273331487,214.47952568658175 1299.100596383288,146.95639366449248 C1383.6318904914126,98.58040828676542 1271.1771912174354,-46.37660470755327 1325.4065045046007,164.07991449676067 " stroke="#ffffff" stroke-width="1.2236677269181195" fill="none" opacity="0.1685163087561056" />
  <path d="M1053.8325970672602,1060.07678953875 C1094.9818023561381,1040.2149998854304 1046.590092075013,1252.214836910464 1210.8903782500279,1072.9206172679467 C1174.1959715310213,1168.9566980489924 1063.9210379000178,938.9049113011555 1310.0959152518444,1219.227151122959 C1239.5301757502998,1217.0463738600638 1387.1187973976253,1270.1762204021695 1186.8732850654592,1106.3792656087637 C1146.602629709221,1142.358694892457 1319.0516018676121,915.4974648178465 1238.6182404715971,935.3751918797016 " stroke="#ffffff" stroke-width="0.34865448298309404" fill="none" opacity="0.04736982605842021" />
  <path d="M1251.5104447735641,718.419996730166 C1298.463161831251,749.4219149332077 1144.5121025348124,565.0498312751054 1100.0298343234574,847.6024503492574 C1128.0732791216196,827.8842331528981 920.7043863678141,830.6658201180157 1251.4194754436858,828.1561254725846 C1337.825261297325,776.4426742288025 1108.63220813681,936.9556718610121 1394.4292665988394,1044.3079520676874 C1300.1643629614002,1122.3144081684381 1238.1724954071028,967.2675998770552 1160.4242543977252,1121.5121126988467 " stroke="#ffffff" stroke-width="0.6008588894679332" fill="none" opacity="0.09961318775149043" />
  <path d="M658.2125655917998,385.67216717189825 C651.0424720183316,320.2035937453421 826.2288892996114,280.109860932931 501.50396564037277,393.4684883076444 C426.38451084493653,492.10078542341853 470.4580783514853,567.880237682818 649.1089247662533,490.64298884278895 C688.0555961340112,474.67481915951873 691.599085490873,417.7363818088416 451.1989625663636,306.10488764145475 C523.3165511775176,336.97066066788545 310.5115621324137,312.41640084379515 452.70619295500404,195.44375435525643 " stroke="#ffffff" stroke-width="0.6398331761341121" fill="none" opacity="0.0821879400935053" />
  <path d="M904.956287392274,581.926110494085 C1003.0820324459262,551.1270118996524 930.6805176310385,402.6087206650642 798.1814105945338,650.5712244106298 C734.5646524649486,606.8552413155027 960.1225815179221,551.1458101952114 737.2855371646369,797.9680822571738 C723.8173138576504,723.5269001103457 864.7320276714315,660.9546397047784 707.6940087045755,1011.9865288880108 C689.6601456244965,1060.2885170451293 636.8663114076556,837.1563781700166 750.7758782492615,1022.8324889120724 " stroke="#ffffff" stroke-width="0.44103033478471626" fill="none" opacity="0.1657641110248171" />
  <path d="M430.16826287055255,975.4368983482394 C338.37848873365044,955.0362200137552 609.726283243567,1152.6988421803703 563.7815382206301,786.0482157645197 C532.4518002928977,788.5431421295549 473.12623842007315,646.9385983296706 373.48718250158163,898.3315948557793 C283.6873651188263,958.9461920846402 561.1596173451778,965.8651651414101 602.2668947335352,867.6222197785606 C522.566200930977,769.84672280743 708.0853020831312,676.7330886328094 832.5372328695207,623.822172718939 " stroke="#ffffff" stroke-width="1.255058182645173" fill="none" opacity="0.1271143612287035" />
  <path d="M219.74329910133704,398.86408872370214 C139.7807678463969,419.5680211506018 189.937349731323,226.37386894573655 27.61221956386339,414.16415678088146 C120.18732671013763,348.1210744229902 -152.51169042964474,423.46971182540346 -126.64223362631677,258.9609047909973 C-220.41926968942917,270.12394217478106 -5.291169614713937,329.4130672201798 -114.96312693766717,171.99757802408675 C-115.93509613047235,233.73897506478764 -190.28608910751174,328.70302391829205 -297.7960511480412,61.3543405300334 " stroke="#ffffff" stroke-width="0.38046735233235646" fill="none" opacity="0.1401148211328634" />
  <path d="M1727.7280894826577,150.00095420204772 C1646.1907670106934,199.27927413032046 1863.1447637420047,246.01492129824467 1686.722895493012,-76.3437591722579 C1740.441075037702,-103.69145159098143 1506.24773580679,49.83886855344534 1866.0465108674844,-307.2869614895187 C1778.8158942726222,-257.00036207627386 1984.1524520545383,-274.42555610870374 2073.883777009162,-458.2155598880365 C2006.102446543743,-507.44536399124513 1962.8454887549974,-514.8168391480149 2163.9963320918487,-677.9496338300261 " stroke="#ffffff" stroke-width="1.3454011360948899" fill="none" opacity="0.11380503901749586" />
  <path d="M1697.2994624162814,229.7149918305318 C1610.9922651410245,163.4804044000062 1821.5257444408476,310.5625097954189 1826.1117004779442,104.16944866849965 C1739.9058827086285,127.61745548418546 1875.883870746596,52.91767344078539 1960.3488120991865,75.38147318764877 C1972.0056741381013,9.413360926795505 1963.4455424770208,-44.974915100308266 2163.1103627255507,279.55546968062936 C2120.1775727967065,356.5306784830451 2224.426569161776,210.43463760940656 1953.3914723273917,522.8577990792148 " stroke="#ffffff" stroke-width="0.6504858420933253" fill="none" opacity="0.1497684945253652" />
  <path d="M1776.847112283293,875.7470501529191 C1845.3342070763354,951.3042813614637 1649.218409110932,802.9672813634327 1814.3900468150478,710.8724316937256 C1715.5600794561424,755.0237276399059 1633.5851604638476,838.5577590532631 1961.6908914964629,573.0073138746859 C1929.0977042043555,621.9234110181064 1910.1902982574052,612.1210939337304 1734.0340980529795,536.7886108596604 C1638.9539697671469,442.3877382035744 1728.976166668487,515.4893935381699 1578.7011897614234,537.7437013351923 " stroke="#ffffff" stroke-width="1.5744991149983114" fill="none" opacity="0.060153526457128154" />
  <path d="M1052.3206636577208,220.66572051086902 C1151.700114411912,201.74309770559006 894.568698875922,47.263908381117716 813.075967800777,94.36730313154767 C721.9403751864658,193.951114768568 670.605837661872,84.4372471729355 985.2049146320747,236.03195180414428 C1048.5652422717947,286.25179402295885 1100.0244338872787,365.1970222371001 1019.9231026390403,115.21929760725902 C959.5133869891766,163.80160845648604 837.0423446040747,144.97647093214542 883.1431759290806,303.5011491029859 " stroke="#ffffff" stroke-width="0.9069317438839906" fill="none" opacity="0.05871844901160421" />
  <path d="M1720.0261401158305,697.9454038580984 C1729.0666578207288,787.6299584353435 1575.6154991441424,720.6953225276425 1479.361876361007,831.1751546469493 C1383.4317952923657,892.1316818484746 1342.686894742029,764.9076499349899 1380.1814872031428,842.244012158696 C1304.1662254685214,914.3704311902832 1560.2853229732686,809.8730761016521 1333.2315045545904,825.2166033340067 C1311.7182440990946,804.7859303183214 1221.878785389012,719.9765626481923 1226.9732281107813,742.1164695590555 " stroke="#ffffff" stroke-width="0.8786383376696514" fill="none" opacity="0.10324619366150603" />
  <path d="M1022.8684523379121,746.4600083262775 C1025.8398328547653,760.0456624479345 958.3720908903558,759.7065594134917 927.318664440076,591.2515976080605 C955.5644439144547,660.0167681701864 832.3379594847245,727.632093573259 870.0095116113857,484.7823828563355 C795.4311082437158,548.6410044514696 1057.04688541366,306.85050937250156 858.9970477732419,309.26651191591196 C870.9567394159833,271.37845950124586 822.0274651478084,440.31204191338395 707.7588170396391,515.7188240921023 " stroke="#ffffff" stroke-width="0.8409314758019493" fill="none" opacity="0.03777304597974001" />
  <path d="M1311.2834625382015,1001.719603218615 C1217.8807977871404,918.6643916790043 1256.492930169497,958.7901054566275 1249.5962519669947,1041.951878007008 C1214.5076569544794,1081.9476068820968 1148.2906180072184,1005.0659914600634 1137.6883567733344,1110.780911047891 C1098.1966713846355,1165.506418718998 1220.1434791933464,1215.0123491791874 1177.643667767095,946.2454772976282 C1160.0694012562053,1012.8283857304252 1200.6775821133424,957.0984276361085 1130.6572927036084,1086.1937351580236 " stroke="#ffffff" stroke-width="0.40528009797153913" fill="none" opacity="0.08059683760904342" />
  <path d="M1748.587114760065,390.9547847536144 C1790.640909653929,426.6795025766854 1864.6186392430616,364.50168935577074 1806.0362898585017,297.8448571873786 C1905.7890783444793,326.77139763142986 1855.1119778618447,264.57818485515565 1995.542765871929,70.08713523762984 C1968.7631075118443,108.89717151918032 2139.5645720345838,52.870600600635896 1790.1987291945668,-163.4726272857528 C1700.2523655529067,-192.39186231513298 1819.5471869720348,-186.94432977421314 1956.2667595309626,-27.202499042615926 " stroke="#ffffff" stroke-width="0.2930031119341105" fill="none" opacity="0.14392262991565502" />
  <path d="M1291.6258483431875,928.2932066333434 C1332.5748774778954,915.3427869100947 1476.3821357577633,1111.9889723598696 1437.5206610219172,991.6486895899877 C1468.5405347026344,1068.7207352984194 1263.1622136568099,870.6124819657118 1641.923393283778,1174.7083241357839 C1603.0370007158176,1154.188518271787 1810.7495336611184,1216.3180917866314 1545.5677892826477,1082.753229741317 C1512.7145505977242,1135.1379108171564 1554.1104736610923,1135.3951415068434 1560.9833765449473,1201.5458591983952 " stroke="#ffffff" stroke-width="0.7637651077570016" fill="none" opacity="0.04004330929011993" />
  <path d="M1194.299666803664,33.07253478611463 C1292.9840111261751,-8.484712844667449 1385.9487368554237,-67.6469856845987 964.97960627935,12.606043346062648 C1026.7870405455924,-1.0046813817816513 1064.8435702965364,-175.1872668834358 916.710255923965,191.7211375284571 C992.5914120503626,127.32342315062536 1110.608656712448,30.613634917195867 1070.6310950450707,288.6741364310591 C993.5443932630367,228.72444331967188 1027.1448951887483,297.7008938130779 938.5331871423394,113.31140782023738 " stroke="#ffffff" stroke-width="0.43604398628877666" fill="none" opacity="0.12058388759572969" />
  <path d="M204.19363335925766,148.16956869537097 C109.3279356164013,236.776422935405 130.74700919646017,205.97100708197627 92.71022031294973,-49.84028163498169 C169.98727854780512,-136.98923635167571 106.51606165073758,-42.00436340847304 286.5130498939875,180.47287505495598 C303.5717445375774,85.87671325279298 327.2701354941935,-0.2948725765685367 506.9645479542614,328.0159605854635 C423.73813375972463,251.32475656964002 441.65055877374937,225.536047789854 437.98207832792735,102.06348025527473 " stroke="#ffffff" stroke-width="1.5809073992775715" fill="none" opacity="0.02026094880255383" />
  <path d="M191.5132018957867,352.12022311610343 C151.44598274702196,304.45647161414587 380.5849032309767,269.12099091222416 187.61325831788213,262.53339305844406 C150.9621116467117,166.3432749992428 144.1090771615325,364.39399413565104 -38.260053370283686,465.20528848643033 C-57.82567015917654,561.9337678828418 -201.47266067052095,532.4740071330816 -97.10599869057566,598.3778040305278 C-195.85598538543633,598.2521345775065 -296.65188319180254,461.2135614034412 18.941417911983905,740.1463405102327 " stroke="#ffffff" stroke-width="1.6463737350752807" fill="none" opacity="0.02873692909402446" />
  <path d="M271.32588039053644,923.4343998595698 C282.8967020937075,965.4416049273898 143.58655023366458,1014.9378831875995 421.0534242297084,1110.4608805154594 C483.01092325617344,1160.188074448556 271.68152913929197,950.9612125898186 444.5562931845655,1314.0507664473012 C422.7275940942299,1351.4556884544777 432.58771398925944,1190.9513869270038 300.6429941507209,1519.5851608960818 C238.08260128378066,1526.444637580041 381.464607479313,1671.5971682477186 537.8218366003921,1343.6983058610244 " stroke="#ffffff" stroke-width="1.6438716945890135" fill="none" opacity="0.029622814665320622" />
  <path d="M316.7209162466595,700.2631227147234 C391.21025500062,752.8189156684125 478.30061968506567,692.1047904037509 259.2603099690101,743.2943715280104 C268.9440971375801,762.7043978537004 414.76868350349065,662.0191082199983 210.78992071381745,909.675133180325 C227.25844928648945,829.180499192521 349.3185220349577,787.9315946316509 148.19489351954556,1151.3096562849942 C170.20639340964968,1240.4763114644195 187.17489901249797,964.3893178921769 55.259674292547345,1302.9992801443784 " stroke="#ffffff" stroke-width="0.4066883474036091" fill="none" opacity="0.1576130306473327" />
  <path d="M235.4592029456728,865.1711603687423 C227.08548118635963,816.1700858900077 323.64868796263204,984.6581221265351 164.58559593562674,705.2599883541066 C91.36611406294462,783.6863710468326 265.1796885184717,578.2608982514831 350.17206002892135,565.1015012195681 C418.2976700864624,483.0431424658434 534.5763482152931,606.7851025040384 175.69426163335868,794.6543833610124 C193.3265618292395,797.8338358390184 119.94156978663466,682.5542053586125 241.91775028171617,883.7001585409628 " stroke="#ffffff" stroke-width="1.3898379292385485" fill="none" opacity="0.11240268295149805" />
  <path d="M973.1419009453851,726.7934862130462 C885.017581286515,697.8740272236591 912.3842186283371,867.1566955728161 853.6326067887724,854.6288406109381 C880.240361773426,835.228888126358 711.2268051451134,1021.6339818919176 785.8160260206149,1055.4558621043946 C764.5856591270954,1136.3486490043504 704.0755887517079,1189.2741773546375 642.3455991157988,837.4592618576445 C692.3056067373786,857.8116304372379 533.6586333298826,954.0269888319308 786.5850380931316,668.7902864803058 " stroke="#ffffff" stroke-width="1.2457944185243586" fill="none" opacity="0.14391991971552773" />
  <path d="M1647.4133443512412,379.5935396120729 C1722.2058574052687,332.66663045405875 1671.4758383919702,451.3748115819927 1489.169452666847,357.7024205960783 C1419.4751870493703,352.45194088568974 1443.0039025341375,402.98542966766644 1651.4243928290903,346.67974614072034 C1585.925671730503,373.3802417313714 1486.7612971685353,270.0115779775293 1845.4792187956136,355.69972662029267 C1837.2891369919503,313.50544891143034 1700.2556547864401,538.935210928227 1615.107616049324,451.2823495911082 " stroke="#ffffff" stroke-width="1.668422929570735" fill="none" opacity="0.08767001963498758" />
  <path d="M698.649863697508,442.96473436535433 C774.5638849949373,385.5516986726495 778.9299003223407,277.1394896250252 634.2226652601337,245.20244257655955 C677.336706291584,224.97650747808513 459.2918426385845,193.03613123421033 790.1463599264027,79.00792811863423 C876.3298374387056,-19.140923825325856 920.3263968307486,257.3519459778885 822.0083024529417,69.90576827410345 C863.2108326928881,-21.578998453734783 1005.8433462086757,-96.67810763943254 725.0497654766623,189.95947084484246 " stroke="#ffffff" stroke-width="0.9323223134111907" fill="none" opacity="0.1650924876635175" />
  <path d="M1730.4433660505183,665.3793279710277 C1758.5394183996837,736.1786046523688 1748.2114604060275,470.7971194857023 1649.5178340669117,854.9794205519544 C1659.5394784610826,883.1438260951913 1694.5329165871426,993.3404871889902 1415.4615578956034,893.3311507685 C1349.185405522569,943.5028472273601 1216.1501954307937,710.2828907809967 1168.2622636860426,1129.6276823505477 C1087.7875742151396,1142.085015852659 1177.6936290086367,1265.246649017756 1346.5296559058897,1016.6176511044594 " stroke="#ffffff" stroke-width="1.4697300381506213" fill="none" opacity="0.10853542878050204" />
  <path d="M57.16444749600811,7.837398128823372 C7.8067060385215825,-32.034913113320634 20.214307141807353,-142.98275063869917 101.80367027964832,-194.8305791601432 C151.46574038988976,-271.04420778692395 187.2696780410164,-305.2630814946808 166.09408555208194,30.604821880105305 C238.4660824112662,25.216450869936196 17.115209438810354,11.82769772037102 369.45975310365344,-88.35568697485115 C402.00388939561014,-54.97162015299517 361.0131300062883,-264.0800563246147 317.47312220265457,-197.30534011281105 " stroke="#ffffff" stroke-width="0.2683934882411427" fill="none" opacity="0.07177206022590843" />
  <path d="M1103.0849655501238,675.3136538379784 C1009.3882099200355,732.3939078964077 1108.8278139686859,579.0231624818045 1287.5243936112643,713.4385168274416 C1302.1420243916814,810.3907403409829 1199.2083422918613,725.9092979964117 1272.7297293701104,847.3712402631638 C1307.644319817029,779.5564908829238 1139.747698747787,963.0030489466487 1324.6180449486424,937.4997809553017 C1416.602096511047,840.3412617982096 1204.3463512376773,1020.2072106874105 1526.389761714409,945.2580994394568 " stroke="#ffffff" stroke-width="0.24068938368379905" fill="none" opacity="0.022170325560231203" />
  <path d="M491.0442962409876,3.0188728044711244 C511.3060570539637,94.8455841033603 426.6803983990048,75.44033063140512 550.4651442689095,-2.7085195506537385 C502.73325910421914,-16.230564745826804 546.0168409571351,4.831019352713492 330.12137354319975,-23.9162100585015 C407.4549096323907,-121.36526047319404 190.64816308432933,98.69306766813017 228.91791071710503,-250.28776324837716 C180.17175418065278,-178.9700287916261 270.39683076412445,-388.0811421431895 55.80799796200779,-18.868202067383862 " stroke="#ffffff" stroke-width="0.9575903406352908" fill="none" opacity="0.05155182411316814" />
  <path d="M1775.002291399754,329.9458445503005 C1719.3349053942422,410.2550105881377 1664.2349700055388,391.177337173107 1905.299079721635,511.98067807251607 C1945.5690666394464,425.87505715939346 1876.6598018888517,362.3758501879283 1902.096593803397,584.9278810850135 C1825.4631828028023,644.4147102563173 2010.414831134239,403.61398537435264 1996.506387172526,752.666702037279 C1916.4973912790842,750.9929963173205 2087.0803592131965,628.5038829211082 2122.1400015847435,913.8572198349761 " stroke="#ffffff" stroke-width="0.22066168897609445" fill="none" opacity="0.07340623776022442" />
  <path d="M1843.0157492659764,117.2295622648325 C1753.5159630510957,176.30417545068195 1914.4951148517325,259.8087412813528 1741.3779828105683,-64.25569120676222 C1710.2122206557958,-103.79914793736486 1761.6088292052746,51.812245035596035 1615.1595730331983,-76.41613841576289 C1652.2842523768372,-130.72774952609865 1641.5455965537026,-8.003166674251887 1719.5269219265342,-297.18577840112516 C1678.9131745017019,-272.5422650736933 1607.904727544769,-139.963828628641 1493.8863158862928,-460.9042541771161 " stroke="#ffffff" stroke-width="1.040753416636167" fill="none" opacity="0.06187320595178443" />
  <path d="M1148.5346184596551,114.63418683157916 C1122.5045992201303,188.83621432682327 1326.5649397678044,52.72338906714869 1049.9733846421957,-112.79161976453729 C1042.4897875818365,-95.83963184015171 919.3188498929466,82.4370174557849 1211.2977669459187,-168.8814202819388 C1174.8305217724833,-152.73920333313816 1244.3356352507467,-227.80216810945666 1217.1848162956112,-94.28301862038393 C1128.9259815729404,-174.53924970756128 1300.3163508019366,-66.4621338583355 1100.9304494779176,83.87252617858638 " stroke="#ffffff" stroke-width="1.569722451580777" fill="none" opacity="0.033048634563957166" />
  <path d="M346.7646375951199,779.7741003671335 C261.1220021952713,844.6843566363632 546.1817158728077,750.1843642122849 103.15762735911005,561.7144111092362 C83.46733929872812,515.9077934293568 232.97882961117784,600.1853496932189 225.16967909433373,320.37078408491305 C290.1746575288912,253.38651181132812 141.27054827935214,340.15818740226587 161.84788597727473,264.3236836130978 C103.43068585488022,214.91813477183422 339.7695872272968,206.51261004719467 261.3805554266544,501.1322855648024 " stroke="#ffffff" stroke-width="0.7304922493978072" fill="none" opacity="0.027561491930899587" />
  <path d="M1663.1287869934004,304.2498963745626 C1708.7220292961667,402.4421843482352 1527.3017908196764,157.1987984322145 1454.6239979064396,291.8178756343459 C1395.3566044763722,275.3070589113082 1405.317902991781,347.4093473546516 1340.8718428433501,176.178226911051 C1257.7497582342046,90.50547314352163 1445.7297057410065,170.0013106389056 1114.1395117425807,-9.143977927386402 C1063.8439462251313,-36.88526082635423 1231.556401853083,-164.98897421907645 1025.488481880151,87.10047636265284 " stroke="#ffffff" stroke-width="0.4321475814573476" fill="none" opacity="0.1382098716305902" />
  <path d="M1156.1838805959146,158.581071112757 C1206.9252550231543,160.6257108468283 1129.6151900145876,188.62884530572032 936.6538910386823,378.14237526119047 C1034.2018516167072,444.183483504762 1014.7455887465857,503.7114187907722 1002.6372312838548,276.44852024047213 C913.7792441701156,231.52480977341116 1196.146080556648,449.11761264717404 846.603485613687,237.95176956074113 C783.4008882364369,291.883241778419 923.8652843285721,209.38603378127874 1079.936606596872,398.769409599654 " stroke="#ffffff" stroke-width="0.7434980389708661" fill="none" opacity="0.14797210807495345" />
  <path d="M847.8961870114558,254.59091117011184 C886.9592591540076,194.34305448647737 907.7551362486023,161.42364509617778 904.8042280640714,187.54203482011428 C953.856406761442,247.66536364681988 984.0144022508667,257.31918134654086 1086.9665584025443,265.089217695106 C1066.2472954022837,243.9749076519996 1245.9755807205936,289.70412679856906 904.4479142680772,243.04496741442543 C850.1806132956261,291.37193543367266 727.7664690541092,342.34716628812225 903.3350243178918,481.40407479736473 " stroke="#ffffff" stroke-width="1.0256794891866978" fill="none" opacity="0.0339956159418662" />
  <path d="M1797.348737130396,782.0487022343076 C1745.3144644691063,878.352391666932 1896.1614828490992,634.9127481959766 1989.5325587215316,721.5643307884145 C1957.5386648505842,777.840437441146 2177.431833709968,748.1395923843556 1753.0400701093668,591.5034593079095 C1743.7878154135358,573.2061478148621 1900.056011749689,636.5352054712807 1741.7313537180578,654.0624248038896 C1772.0652896420963,599.594847746116 1819.989066170816,598.1991792990955 1595.1041573233515,602.644004292928 " stroke="#ffffff" stroke-width="0.8372914874797297" fill="none" opacity="0.07233233031357293" />
  <path d="M832.2210705636941,251.46598131394754 C782.9034265578381,272.808208184714 650.9250946074669,400.6123623093479 788.086676744595,14.128313914338264 C734.5972618234741,-26.23300839496516 764.1079202786462,-69.21383475770035 717.424379869358,-186.08845438954177 C639.7480685696992,-263.8798090538461 707.0473769235504,-152.85023707121803 655.6906302855996,11.74949823190758 C737.0419206545471,-76.2479619271877 566.853561077594,-187.68486409335574 809.532753914766,-128.14492978400287 " stroke="#ffffff" stroke-width="1.1788951122902216" fill="none" opacity="0.11398262512363232" />
  <path d="M1829.273289952025,518.1874841039863 C1914.1319791928938,548.5425368066805 1735.5056011051681,407.3453448594165 1620.4742518505145,620.4684343449405 C1650.865063527241,624.1203295403575 1675.7685035090467,544.4145006595857 1473.7702842182746,510.4041206179563 C1396.501384089066,477.70436993762524 1538.681501221638,603.2144304429132 1328.9270726407312,630.1631558859315 C1256.2408216150293,562.5933209744725 1484.7043796395778,666.8887897927552 1430.421312229928,856.0882344671888 " stroke="#ffffff" stroke-width="0.7138614949378306" fill="none" opacity="0.08083058991045981" />
</svg>